<svg width="20" height="20" viewBox="0 0 20 20" fill="none" xmlns="http://www.w3.org/2000/svg">
<path d="M6.73415 11.8856L3.66889 17.1947L6.93479 19.0803L10 13.7711L13.0653 19.0803L16.3312 17.1947L13.2659 11.8856H19.3965V8.11443H13.2659L16.3312 2.80525L13.0653 0.919678L10 6.22886L6.93479 0.919678L3.66889 2.80525L6.73415 8.11443H0.603638V11.8856H6.73415Z" fill="#FEFEFE"/>
<path d="M6.73415 11.8856L3.66889 17.1947L6.93479 19.0803L10 13.7711L13.0653 19.0803L16.3312 17.1947L13.2659 11.8856H19.3965V8.11443H13.2659L16.3312 2.80525L13.0653 0.919678L10 6.22886L6.93479 0.919678L3.66889 2.80525L6.73415 8.11443H0.603638V11.8856H6.73415Z" stroke="#FEFEFE" stroke-width="0.5" stroke-linecap="square"/>
</svg>
