<svg width="30" height="30" viewBox="0 0 30 30" fill="none" xmlns="http://www.w3.org/2000/svg">
    <g clip-path="url(#clip0_9_8517)">
        <path d="M15 5.625C15.2486 5.625 15.4871 5.72377 15.6629 5.89959C15.8387 6.0754 15.9375 6.31386 15.9375 6.5625V10.3125C15.9375 10.5611 15.8387 10.7996 15.6629 10.9754C15.4871 11.1512 15.2486 11.25 15 11.25C14.7514 11.25 14.5129 11.1512 14.3371 10.9754C14.1613 10.7996 14.0625 10.5611 14.0625 10.3125V6.5625C14.0625 6.31386 14.1613 6.0754 14.3371 5.89959C14.5129 5.72377 14.7514 5.625 15 5.625ZM22.5 20.625C22.5 22.6141 21.7098 24.5218 20.3033 25.9283C18.8968 27.3348 16.9891 28.125 15 28.125C13.0109 28.125 11.1032 27.3348 9.6967 25.9283C8.29018 24.5218 7.5 22.6141 7.5 20.625V9.375C7.5 7.38588 8.29018 5.47822 9.6967 4.0717C11.1032 2.66518 13.0109 1.875 15 1.875C16.9891 1.875 18.8968 2.66518 20.3033 4.0717C21.7098 5.47822 22.5 7.38588 22.5 9.375V20.625ZM15 0C12.5136 0 10.129 0.98772 8.37087 2.74587C6.61272 4.50403 5.625 6.8886 5.625 9.375V20.625C5.625 23.1114 6.61272 25.496 8.37087 27.2541C10.129 29.0123 12.5136 30 15 30C17.4864 30 19.871 29.0123 21.6291 27.2541C23.3873 25.496 24.375 23.1114 24.375 20.625V9.375C24.375 6.8886 23.3873 4.50403 21.6291 2.74587C19.871 0.98772 17.4864 0 15 0Z" fill="#0F0F0F"/>
    </g>
    <defs>
        <clipPath id="clip0_9_8517">
            <rect width="30" height="30" fill="white"/>
        </clipPath>
    </defs>
</svg>
