<svg width="60" height="61" viewBox="0 0 60 61" fill="none" xmlns="http://www.w3.org/2000/svg">
<circle cx="30" cy="30.6968" r="29.5" stroke="#FEFEFE"/>
<path d="M33.75 30.6968C33.75 31.4385 33.5301 32.1635 33.118 32.7802C32.706 33.3968 32.1203 33.8775 31.4351 34.1613C30.7498 34.4452 29.9958 34.5194 29.2684 34.3747C28.541 34.23 27.8728 33.8729 27.3483 33.3484C26.8239 32.824 26.4667 32.1558 26.3221 31.4284C26.1774 30.7009 26.2516 29.9469 26.5355 29.2617C26.8193 28.5765 27.2999 27.9908 27.9166 27.5788C28.5333 27.1667 29.2583 26.9468 30 26.9468C30.9936 26.9499 31.9456 27.3459 32.6482 28.0485C33.3508 28.7511 33.7469 29.7032 33.75 30.6968ZM41.7188 25.5405V35.853C41.7188 37.5935 41.0273 39.2627 39.7966 40.4934C38.5659 41.7241 36.8967 42.4155 35.1562 42.4155H24.8438C23.1033 42.4155 21.4341 41.7241 20.2034 40.4934C18.9727 39.2627 18.2812 37.5935 18.2812 35.853V25.5405C18.2812 23.8 18.9727 22.1308 20.2034 20.9001C21.4341 19.6694 23.1033 18.978 24.8438 18.978H35.1562C36.8967 18.978 38.5659 19.6694 39.7966 20.9001C41.0273 22.1308 41.7188 23.8 41.7188 25.5405ZM35.625 30.6968C35.625 29.5843 35.2951 28.4967 34.677 27.5717C34.0589 26.6467 33.1804 25.9257 32.1526 25.5C31.1248 25.0742 29.9938 24.9628 28.9026 25.1799C27.8115 25.3969 26.8092 25.9326 26.0225 26.7193C25.2359 27.506 24.7001 28.5083 24.4831 29.5994C24.266 30.6905 24.3774 31.8215 24.8032 32.8494C25.2289 33.8772 25.9499 34.7557 26.8749 35.3738C27.7999 35.9919 28.8875 36.3218 30 36.3218C31.4918 36.3218 32.9226 35.7291 33.9775 34.6743C35.0324 33.6194 35.625 32.1886 35.625 30.6968ZM37.5 24.603C37.5 24.3249 37.4175 24.053 37.263 23.8218C37.1085 23.5905 36.8889 23.4103 36.6319 23.3038C36.3749 23.1974 36.0922 23.1695 35.8194 23.2238C35.5466 23.2781 35.296 23.412 35.0994 23.6087C34.9027 23.8053 34.7688 24.0559 34.7145 24.3287C34.6603 24.6015 34.6881 24.8842 34.7945 25.1412C34.901 25.3981 35.0812 25.6178 35.3125 25.7723C35.5437 25.9268 35.8156 26.0093 36.0938 26.0093C36.4667 26.0093 36.8244 25.8611 37.0881 25.5974C37.3518 25.3337 37.5 24.976 37.5 24.603Z" fill="#FEFEFE"/>
</svg>
