<svg width="60" height="61" viewBox="0 0 60 61" fill="none" xmlns="http://www.w3.org/2000/svg">
<circle cx="30" cy="30.6968" r="29.5" stroke="#FEFEFE"/>
<path d="M29.5186 18.1968C27.877 18.1968 26.2516 18.5201 24.735 19.1483C23.2184 19.7765 21.8405 20.6972 20.6797 21.8579C18.3355 24.2021 17.0186 27.3816 17.0186 30.6968C17.0186 36.2218 20.6061 40.9093 25.5686 42.5718C26.1936 42.6718 26.3936 42.2843 26.3936 41.9468V39.8343C22.9311 40.5843 22.1936 38.1593 22.1936 38.1593C21.6186 36.7093 20.8061 36.3218 20.8061 36.3218C19.6686 35.5468 20.8936 35.5718 20.8936 35.5718C22.1436 35.6593 22.8061 36.8593 22.8061 36.8593C23.8936 38.7593 25.7311 38.1968 26.4436 37.8968C26.5561 37.0843 26.8811 36.5343 27.2311 36.2218C24.4561 35.9093 21.5436 34.8343 21.5436 30.0718C21.5436 28.6843 22.0186 27.5718 22.8311 26.6843C22.7061 26.3718 22.2686 25.0718 22.9561 23.3843C22.9561 23.3843 24.0061 23.0468 26.3936 24.6593C27.3811 24.3843 28.4561 24.2468 29.5186 24.2468C30.5811 24.2468 31.6561 24.3843 32.6436 24.6593C35.0311 23.0468 36.0811 23.3843 36.0811 23.3843C36.7686 25.0718 36.3311 26.3718 36.2061 26.6843C37.0186 27.5718 37.4936 28.6843 37.4936 30.0718C37.4936 34.8468 34.5686 35.8968 31.7811 36.2093C32.2311 36.5968 32.6436 37.3593 32.6436 38.5218V41.9468C32.6436 42.2843 32.8436 42.6843 33.4811 42.5718C38.4436 40.8968 42.0186 36.2218 42.0186 30.6968C42.0186 29.0553 41.6952 27.4298 41.0671 25.9132C40.4389 24.3967 39.5181 23.0187 38.3574 21.8579C37.1967 20.6972 35.8187 19.7765 34.3021 19.1483C32.7855 18.5201 31.1601 18.1968 29.5186 18.1968Z" fill="#FEFEFE"/>
</svg>
