<svg width="60" height="61" viewBox="0 0 60 61" fill="none" xmlns="http://www.w3.org/2000/svg">
<circle cx="30" cy="30.6968" r="29.5" stroke="#FEFEFE"/>
<path fill-rule="evenodd" clip-rule="evenodd" d="M15.2836 19.4834H19.4042V23.6146C19.4042 25.8868 19.4631 27.7458 19.5514 27.7458C19.6397 27.7458 20.0812 27.4212 20.5815 27.0081C21.0819 26.595 22.0238 26.1228 22.7301 25.9458C23.6131 25.7392 24.349 25.7392 25.2908 25.9753C26.0267 26.1523 26.9685 26.595 27.41 26.9491C27.8221 27.3032 28.3813 28.0999 28.6462 28.7196C29.0288 29.6049 29.1171 31.0213 29.1171 41.9099H24.9965V36.1558C24.9965 30.7852 24.9671 30.3721 24.4078 29.8114C24.0154 29.418 23.4267 29.2212 22.6418 29.2212C21.7294 29.2212 21.2879 29.4278 20.6404 30.0475C20.0812 30.6672 19.7868 31.3164 19.6397 32.4967C19.5219 33.382 19.4042 35.8607 19.4042 41.9099H15.3424L15.3424 30.6081L15.2836 19.4834ZM30.8829 19.4834H35.0036V23.6146C35.0036 25.8868 35.0624 27.7458 35.1507 27.7458C35.239 27.7458 35.6805 27.4212 36.1809 27.0081C36.6813 26.595 37.6231 26.1228 38.3295 25.9458C39.2125 25.7392 39.9483 25.7392 40.8902 25.9753C41.626 26.1523 42.5679 26.595 43.0094 26.9491C43.4214 27.3032 43.9807 28.0999 44.2456 28.7196C44.6282 29.6049 44.7165 31.0213 44.7165 41.9099H40.5959V36.1558C40.5959 30.7852 40.5664 30.3721 40.0072 29.8114C39.6148 29.418 39.0261 29.2212 38.2412 29.2212C37.3288 29.2212 36.8873 29.4278 36.2398 30.0475C35.6805 30.6672 35.3862 31.3164 35.239 32.4967C35.1213 33.382 35.0036 35.8607 35.0036 41.9099H30.9418V30.6081L30.8829 19.4834Z" fill="#FEFEFE"/>
</svg>
