<svg width="60" height="61" viewBox="0 0 60 61" fill="none" xmlns="http://www.w3.org/2000/svg">
<circle cx="30" cy="30.6968" r="29.5" stroke="#FEFEFE"/>
<path d="M31.25 41.9468H26.25V26.9468H31.25V29.4468C31.7764 28.7771 32.4444 28.2322 33.2062 27.8512C33.968 27.4702 34.8047 27.2625 35.6562 27.243C37.1455 27.2513 38.5707 27.8498 39.6193 28.9073C40.6679 29.9648 41.2543 31.395 41.25 32.8843V41.9468H36.25V33.5093C36.1533 32.8337 35.8158 32.2159 35.2997 31.7694C34.7837 31.3229 34.1237 31.0778 33.4412 31.0793C33.1358 31.0889 32.8355 31.1602 32.5583 31.2888C32.2811 31.4174 32.0327 31.6006 31.828 31.8276C31.6234 32.0545 31.4667 32.3204 31.3674 32.6094C31.2681 32.8984 31.2281 33.2045 31.25 33.5093V41.9468ZM23.75 41.9468H18.75V26.9468H23.75V41.9468ZM21.25 24.4468C20.587 24.4468 19.9511 24.1834 19.4822 23.7145C19.0134 23.2457 18.75 22.6098 18.75 21.9468C18.75 21.2837 19.0134 20.6479 19.4822 20.179C19.9511 19.7102 20.587 19.4468 21.25 19.4468C21.913 19.4468 22.5489 19.7102 23.0178 20.179C23.4866 20.6479 23.75 21.2837 23.75 21.9468C23.75 22.6098 23.4866 23.2457 23.0178 23.7145C22.5489 24.1834 21.913 24.4468 21.25 24.4468Z" fill="#FEFEFE"/>
</svg>
